<?xml version="1.0" standalone="no"?>
<!DOCTYPE svg PUBLIC "-//W3C//DTD SVG 20010904//EN"
 "http://www.w3.org/TR/2001/REC-SVG-20010904/DTD/svg10.dtd">
<svg version="1.0" xmlns="http://www.w3.org/2000/svg"
 width="96.000000pt" height="96.000000pt" viewBox="0 0 96.000000 96.000000"
 preserveAspectRatio="xMidYMid meet">
<metadata>
Created by potrace 1.14, written by Peter Selinger 2001-2017
</metadata>
<g transform="translate(0.000000,96.000000) scale(0.100000,-0.100000)"
fill="#000000" stroke="none">
<path d="M120 480 l0 -360 360 0 360 0 0 360 0 360 -360 0 -360 0 0 -360z
m640 -40 l0 -240 -280 0 -280 0 0 240 0 240 280 0 280 0 0 -240z"/>
<path d="M335 505 c-27 -29 -51 -57 -52 -62 -2 -6 24 -38 59 -72 l63 -61 16
22 c17 21 16 23 -22 62 -21 23 -39 44 -39 48 0 5 18 24 40 44 38 35 40 38 24
55 -10 11 -22 19 -28 18 -6 -1 -33 -25 -61 -54z"/>
<path d="M536 545 c-18 -14 -17 -17 27 -61 l47 -47 -45 -40 c-42 -38 -44 -42
-28 -59 9 -10 19 -18 23 -18 10 0 120 110 120 120 0 10 -110 120 -119 120 -3
0 -15 -7 -25 -15z"/>
</g>
</svg>
